<svg width="1310" height="110" viewBox="0 0 1310 110" fill="none" xmlns="http://www.w3.org/2000/svg">
<path fill-rule="evenodd" clip-rule="evenodd" d="M0.001 71.625C1.254 70.55 2.531 69.554 3.801 68.66C4.127 68.431 36.547 43.369 84.956 68.661L127.919 68.673C127.919 68.673 129.041 107.465 90.399 107.465C80.349 107.465 3.173 107.549 1.114 107.549C0.737 107.549 0.366 107.539 0 107.519V71.625H0.001Z" fill="white"/>
<path fill-rule="evenodd" clip-rule="evenodd" d="M127.923 35.924C126.67 36.999 125.393 37.995 124.123 38.889C123.797 39.118 91.3771 64.18 42.9681 38.888L0.00508877 38.876C0.00508877 38.876 -1.11691 0.0840454 37.5251 0.0840454C47.5751 0.0840454 124.751 0 126.81 0C127.187 0 127.558 0.0100293 127.924 0.0300293L127.923 35.924Z" fill="white"/>
<path d="M259.334 67.253H210.005L224.201 38.86L234.526 17.35H234.956L245.281 38.86L259.334 67.253ZM189.93 107.548L204.27 78.725H264.927L279.123 107.548H293.463L242.27 5.01904H227.644L176.021 107.548H189.93Z" fill="white"/>
<path d="M298.194 5.01904V61.804C298.194 92.061 315.975 109.268 344.511 109.268C373.047 109.268 390.828 92.06 390.828 61.804V5.01904H377.922V61.517C377.922 84.891 365.59 97.223 344.511 97.223C323.432 97.223 311.1 84.891 311.1 61.517V5.01904H298.194Z" fill="white"/>
<path d="M440.301 107.548H453.207V17.065H494.075V5.02002H399.433V17.065H440.301V107.548Z" fill="white"/>
<path d="M512.142 56.355C512.142 32.838 530.21 15.343 554.301 15.343C578.535 15.343 596.746 32.981 596.746 56.355C596.746 79.585 578.535 97.223 554.301 97.223C530.067 97.223 512.142 79.729 512.142 56.355ZM499.236 56.212C499.236 86.182 522.896 109.269 554.444 109.269C585.991 109.269 609.652 86.182 609.652 56.212C609.652 26.385 585.992 3.29901 554.444 3.29901C522.897 3.29901 499.236 26.386 499.236 56.212Z" fill="white"/>
<path d="M644.354 107.548H688.95C723.795 107.548 745.879 87.759 745.879 56.355C745.879 25.094 723.796 5.01904 688.95 5.01904H644.354V107.548ZM657.26 95.503V17.065H688.521C715.91 17.065 732.974 32.265 732.974 56.356C732.974 80.447 715.91 95.503 688.521 95.503H657.26Z" fill="white"/>
<path d="M769.253 5.01904H756.347V107.548H769.253V5.01904Z" fill="white"/>
<path d="M783.019 107.548H795.925V69.548H840.952L871.639 107.548H887.986V107.118L855.865 68.974C873.073 66.249 882.25 54.634 882.25 37.283C882.25 17.638 870.205 5.01904 848.265 5.01904H783.019V107.548ZM795.925 57.502V17.064H847.261C861.601 17.064 869.344 25.094 869.344 37.283C869.344 49.472 861.601 57.502 847.261 57.502H795.925Z" fill="white"/>
<path d="M895.586 107.548H979.903V95.503H908.491V61.948H974.167V49.903H908.491V17.065H979.903V5.02002H895.586V107.548Z" fill="white"/>
<path d="M987.647 56.212C987.647 86.182 1011.59 109.269 1042.57 109.269C1069.96 109.269 1089.6 91.631 1094.19 66.967H1081C1077.13 84.748 1062.5 97.224 1042.42 97.224C1018.76 97.224 1000.55 79.73 1000.55 56.356C1000.55 32.839 1018.76 15.344 1042.28 15.344C1061.35 15.344 1075.12 26.386 1080.14 42.446H1093.33C1088.02 19.502 1068.52 3.29901 1042.57 3.29901C1011.16 3.29901 987.647 26.386 987.647 56.212Z" fill="white"/>
<path d="M1140.22 107.548H1153.13V17.065H1193.99V5.02002H1099.35V17.065H1140.22V107.548Z" fill="white"/>
<path d="M1212.06 56.355C1212.06 32.838 1230.13 15.343 1254.22 15.343C1278.46 15.343 1296.67 32.981 1296.67 56.355C1296.67 79.585 1278.46 97.223 1254.22 97.223C1229.99 97.223 1212.06 79.729 1212.06 56.355ZM1199.16 56.212C1199.16 86.182 1222.82 109.269 1254.36 109.269C1285.91 109.269 1309.57 86.182 1309.57 56.212C1309.57 26.385 1285.91 3.29901 1254.36 3.29901C1222.82 3.29901 1199.16 26.386 1199.16 56.212Z" fill="white"/>
</svg>
